<svg width="16" height="16" fill="none" xmlns="http://www.w3.org/2000/svg"><path d="M10.823 10.07l4.089 3.402v-1.445a7.99 7.99 0 00.816-1.958h-4.905z" fill="#B3B0CF"/><path d="M2.127 13.334a.373.373 0 01-.05.034 8.032 8.032 0 003.707 2.318v-5.368l-3.657 3.016zM10.216.313v5.202l3.744-2.841a8.019 8.019 0 00-3.744-2.36z" fill="#1B00FF"/><path d="M14.424 3.243L10.88 5.93h4.846a7.99 7.99 0 00-1.303-2.688z" fill="#B3B0CF"/><path d="M15.888 6.664H9.849a.367.367 0 01-.367-.366V.138a7.984 7.984 0 00-2.964 0v6.16a.367.367 0 01-.367.366H.11a8.065 8.065 0 000 2.672h6.04c.202 0 .367.164.367.366v6.159a7.978 7.978 0 002.964 0V9.703c0-.202.165-.366.367-.366h6.04a8.012 8.012 0 00-.001-2.672z" fill="#D93F3F"/><path d="M.272 10.07a7.973 7.973 0 001.344 2.741.37.37 0 01.044-.044l3.272-2.698H.272zm1.213-6.713A7.964 7.964 0 00.271 5.93h4.661L1.485 3.357z" fill="#B3B0CF"/><path d="M1.938 2.78l3.846 2.87V.311A8.004 8.004 0 001.938 2.78zm8.278 7.739v5.168c.479-.138.94-.32 1.377-.54h2.12a1.2 1.2 0 001.125-.782l-4.622-3.846z" fill="#1B00FF"/></svg>