<svg width="125" height="103" fill="none" xmlns="http://www.w3.org/2000/svg"><path opacity=".481" fill-rule="evenodd" clip-rule="evenodd" d="M96.803 48.338c3.038 3.955 16.754 4.004 13.74 11.561-2.173 5.45-16.455-2.233-20.453-1.162-3.998 1.071-10.302 3.953-18.076 3.988-7.775.035-13.833-4.878-16.204-4.243-2.372.636-3.168 3.481-8.959 6.097-5.79 2.615-13.825.008-15.606.486-1.781.477-.22 1.108-.155 6.565.067 5.457-5.698 10.335-9.963 6.828-4.265-3.507 1.881-18.966 2.444-19.92.563-.954 2.303-3.636 4.449-2.856 2.145.78 3.7 1.174 5.464-.289 1.764-1.463 28.779-13.91 37.299-15.426 8.52-1.515 22.982 4.416 26.02 8.371z" fill="#00F5FF"/><path fill-rule="evenodd" clip-rule="evenodd" d="M91.952 27.794s-11.59 2.588-20.189-2.778C63.165 19.65 61.02 14.52 60.851 13.89c-.35-1.307 7.522 2.45 11.712 3.145 4.19.696 20.202.602 32.072.788 8.209.128 10.062 4.857 10.714 7.291.876 3.27-1.515 6.305-4.194 7.486-2.679 1.182-7.178 5.496-4.167 9.361 3.01 3.865 16.689 3.848 13.648 11.275-2.193 5.356-16.4-2.113-20.392-1.043-3.992 1.07-10.292 3.927-18.045 3.997-7.754.071-13.772-4.72-16.14-4.085-2.368.634-3.175 3.43-8.962 6.022-5.787 2.593-13.787.074-15.566.55-1.778.477-.225 1.088-.185 6.44.04 5.353-5.73 10.165-9.968 6.746-4.237-3.42 1.965-18.613 2.531-19.551.566-.939 2.314-3.578 4.45-2.823 2.136.755 3.685 1.134 5.45-.31 1.766-1.442-1.218-12.58 9.884-15.024 11.102-2.445 18.882 1.244 27.386-.283 8.504-1.526 10.873-6.078 10.873-6.078z" fill="#00F5FF"/><path fill-rule="evenodd" clip-rule="evenodd" d="M108.171 24.744s-.691-.067-1.623-.509c-.931-.441-1.412-1.736-2.546-1.634-1.134.102-2.678.909-3.086 1.018-.408.11 1.795.282 2.187.89.392.608.984 1.5 2.59 1.453 1.607-.047 2.478-1.218 2.478-1.218z" fill="#32323E"/><g opacity=".317"><path fill-rule="evenodd" clip-rule="evenodd" d="M101 52.5L50.5 2 0 52.5 50.5 103 101 52.5zm-5.05 0L50.5 7.05 5.05 52.5 50.5 97.95 95.95 52.5z" fill="#00F5FF"/><path fill-rule="evenodd" clip-rule="evenodd" d="M79 52.5L50.5 24 22 52.5 50.5 81 79 52.5zm-3 0L50.5 27 25 52.5 50.5 78 76 52.5z" fill="#00F5FF"/><path d="M3 52.888s5.701-4.274 18.49-6.34c12.79-2.065 22.42 2.069 30.98 6.34 8.562 4.271 15.053 6.454 25.16 6.068 10.107-.385 16.696-4.114 20.37-7.123" stroke="#00F5FF" stroke-width="3"/></g></svg>